<mxfile host="app.diagrams.net" modified="2022-03-29T13:13:51.104Z" agent="5.0 (Macintosh; Intel Mac OS X 10_15_7) AppleWebKit/605.1.15 (KHTML, like Gecko) Version/15.3 Safari/605.1.15" etag="cA0AuN94JcqeWjczxfIC" version="17.2.4" type="github">
  <diagram name="Page-1" id="58cdce13-f638-feb5-8d6f-7d28b1aa9fa0">
    <mxGraphModel dx="1351" dy="853" grid="1" gridSize="10" guides="1" tooltips="1" connect="1" arrows="1" fold="1" page="1" pageScale="1" pageWidth="1100" pageHeight="850" background="none" math="0" shadow="0">
      <root>
        <mxCell id="0" />
        <mxCell id="1" parent="0" />
        <mxCell id="9JZ9oiunxaafE0rHezBi-36" value="Copier" style="swimlane;whiteSpace=wrap;html=1;rounded=1;shadow=0;comic=0;labelBackgroundColor=none;strokeWidth=1;fontFamily=Verdana;fontSize=12;align=center;swimlaneLine=1;glass=0;sketch=0;" vertex="1" parent="1">
          <mxGeometry x="40" y="30" width="1230" height="850" as="geometry" />
        </mxCell>
        <mxCell id="2a3bc250acf0617d-7" value="Scanner" style="swimlane;whiteSpace=wrap;html=1;rounded=1;shadow=0;comic=0;labelBackgroundColor=none;strokeWidth=1;fontFamily=Verdana;fontSize=12;align=center;" parent="9JZ9oiunxaafE0rHezBi-36" vertex="1">
          <mxGeometry x="142.5" y="540" width="945" height="275" as="geometry" />
        </mxCell>
        <mxCell id="9JZ9oiunxaafE0rHezBi-109" style="edgeStyle=orthogonalEdgeStyle;rounded=1;orthogonalLoop=1;jettySize=auto;html=1;exitX=0.75;exitY=1;exitDx=0;exitDy=0;entryX=0.5;entryY=0;entryDx=0;entryDy=0;strokeColor=#FF0080;" edge="1" parent="2a3bc250acf0617d-7" source="382b91b5511bd0f7-8" target="9JZ9oiunxaafE0rHezBi-74">
          <mxGeometry relative="1" as="geometry" />
        </mxCell>
        <mxCell id="382b91b5511bd0f7-8" value="StandbyOff" style="rounded=1;whiteSpace=wrap;html=1;arcSize=24;fillColor=#fff2cc;strokeColor=#d6b656;shadow=0;comic=0;labelBackgroundColor=none;fontFamily=Verdana;fontSize=12;fontColor=default;align=center;" parent="2a3bc250acf0617d-7" vertex="1">
          <mxGeometry x="215" y="65" width="120" height="60" as="geometry" />
        </mxCell>
        <mxCell id="9JZ9oiunxaafE0rHezBi-72" style="edgeStyle=orthogonalEdgeStyle;rounded=1;orthogonalLoop=1;jettySize=auto;html=1;exitX=0;exitY=0.5;exitDx=0;exitDy=0;entryX=1;entryY=0.5;entryDx=0;entryDy=0;strokeColor=#FF0080;" edge="1" parent="2a3bc250acf0617d-7" source="24f968d109e7d6b4-3" target="9JZ9oiunxaafE0rHezBi-68">
          <mxGeometry relative="1" as="geometry" />
        </mxCell>
        <mxCell id="24f968d109e7d6b4-3" value="" style="ellipse;html=1;shape=endState;fillColor=#000000;strokeColor=#FF0080;rounded=1;shadow=0;comic=0;labelBackgroundColor=none;fontFamily=Verdana;fontSize=12;fontColor=#000000;align=center;" parent="2a3bc250acf0617d-7" vertex="1">
          <mxGeometry x="667.5" y="190" width="30" height="30" as="geometry" />
        </mxCell>
        <mxCell id="3cde6dad864a17aa-9" style="edgeStyle=elbowEdgeStyle;html=1;labelBackgroundColor=none;endArrow=open;endSize=8;strokeColor=#FF0080;fontFamily=Verdana;fontSize=12;align=left;elbow=vertical;startArrow=none;" parent="2a3bc250acf0617d-7" source="9JZ9oiunxaafE0rHezBi-79" target="382b91b5511bd0f7-8" edge="1">
          <mxGeometry relative="1" as="geometry" />
        </mxCell>
        <mxCell id="9JZ9oiunxaafE0rHezBi-69" style="edgeStyle=orthogonalEdgeStyle;rounded=1;orthogonalLoop=1;jettySize=auto;html=1;exitX=0.5;exitY=1;exitDx=0;exitDy=0;strokeColor=#FF0080;entryX=0.5;entryY=0;entryDx=0;entryDy=0;" edge="1" parent="2a3bc250acf0617d-7" source="9JZ9oiunxaafE0rHezBi-16" target="24f968d109e7d6b4-3">
          <mxGeometry relative="1" as="geometry">
            <mxPoint x="687.5" y="210" as="targetPoint" />
            <Array as="points">
              <mxPoint x="480" y="170" />
              <mxPoint x="683" y="170" />
            </Array>
          </mxGeometry>
        </mxCell>
        <mxCell id="9JZ9oiunxaafE0rHezBi-124" style="edgeStyle=orthogonalEdgeStyle;rounded=1;orthogonalLoop=1;jettySize=auto;html=1;exitX=0;exitY=1;exitDx=0;exitDy=0;entryX=0;entryY=0.5;entryDx=0;entryDy=0;strokeColor=#CCCC00;" edge="1" parent="2a3bc250acf0617d-7" source="9JZ9oiunxaafE0rHezBi-16" target="9JZ9oiunxaafE0rHezBi-122">
          <mxGeometry relative="1" as="geometry">
            <Array as="points">
              <mxPoint x="420" y="160" />
              <mxPoint x="788" y="160" />
            </Array>
          </mxGeometry>
        </mxCell>
        <mxCell id="9JZ9oiunxaafE0rHezBi-16" value="StandbyOn" style="rounded=1;whiteSpace=wrap;html=1;arcSize=24;shadow=0;comic=0;labelBackgroundColor=none;fontFamily=Verdana;fontSize=12;align=center;fillColor=#fff2cc;strokeColor=#d6b656;" vertex="1" parent="2a3bc250acf0617d-7">
          <mxGeometry x="420" y="65" width="120" height="60" as="geometry" />
        </mxCell>
        <mxCell id="9JZ9oiunxaafE0rHezBi-77" style="edgeStyle=orthogonalEdgeStyle;rounded=1;orthogonalLoop=1;jettySize=auto;html=1;exitX=0;exitY=0.5;exitDx=0;exitDy=0;entryX=1;entryY=1;entryDx=0;entryDy=0;strokeColor=#FF0080;" edge="1" parent="2a3bc250acf0617d-7" source="9JZ9oiunxaafE0rHezBi-68" target="382b91b5511bd0f7-8">
          <mxGeometry relative="1" as="geometry" />
        </mxCell>
        <mxCell id="9JZ9oiunxaafE0rHezBi-68" value="Sleep" style="rounded=1;whiteSpace=wrap;html=1;arcSize=24;fillColor=#fff2cc;strokeColor=#d6b656;shadow=0;comic=0;labelBackgroundColor=none;fontFamily=Verdana;fontSize=12;fontColor=default;align=center;" vertex="1" parent="2a3bc250acf0617d-7">
          <mxGeometry x="387.5" y="190" width="120" height="60" as="geometry" />
        </mxCell>
        <mxCell id="9JZ9oiunxaafE0rHezBi-73" value="Console.WriteLine(Wait)" style="text;html=1;strokeColor=none;fillColor=none;align=center;verticalAlign=middle;whiteSpace=wrap;rounded=0;" vertex="1" parent="2a3bc250acf0617d-7">
          <mxGeometry x="657.5" y="220" width="60" height="30" as="geometry" />
        </mxCell>
        <mxCell id="9JZ9oiunxaafE0rHezBi-74" value="" style="ellipse;html=1;shape=endState;fillColor=#000000;strokeColor=#FF0080;rounded=1;shadow=0;comic=0;labelBackgroundColor=none;fontFamily=Verdana;fontSize=12;fontColor=#000000;align=center;" vertex="1" parent="2a3bc250acf0617d-7">
          <mxGeometry x="277.5" y="190" width="30" height="30" as="geometry" />
        </mxCell>
        <mxCell id="9JZ9oiunxaafE0rHezBi-75" value="Console.WriteLine(Scan)" style="text;html=1;strokeColor=none;fillColor=none;align=center;verticalAlign=middle;whiteSpace=wrap;rounded=0;" vertex="1" parent="2a3bc250acf0617d-7">
          <mxGeometry x="262.5" y="220" width="60" height="30" as="geometry" />
        </mxCell>
        <mxCell id="9JZ9oiunxaafE0rHezBi-79" value="" style="triangle;whiteSpace=wrap;html=1;strokeColor=#FF0080;fillColor=none;" vertex="1" parent="2a3bc250acf0617d-7">
          <mxGeometry x="77.5" y="77.5" width="30" height="35" as="geometry" />
        </mxCell>
        <mxCell id="9JZ9oiunxaafE0rHezBi-81" value="TmpScannerCounter &amp;gt;= 5" style="text;html=1;strokeColor=none;fillColor=none;align=center;verticalAlign=middle;whiteSpace=wrap;rounded=0;" vertex="1" parent="2a3bc250acf0617d-7">
          <mxGeometry x="20" y="51.5" width="150" height="30" as="geometry" />
        </mxCell>
        <mxCell id="9JZ9oiunxaafE0rHezBi-100" style="edgeStyle=orthogonalEdgeStyle;rounded=1;orthogonalLoop=1;jettySize=auto;html=1;exitX=1;exitY=0.5;exitDx=0;exitDy=0;entryX=0;entryY=0.75;entryDx=0;entryDy=0;strokeColor=#99004D;labelBackgroundColor=none;endArrow=none;fontSize=12;fontFamily=Verdana;align=left;endSize=8;startArrow=none;" edge="1" parent="2a3bc250acf0617d-7" source="9JZ9oiunxaafE0rHezBi-95" target="382b91b5511bd0f7-8">
          <mxGeometry relative="1" as="geometry" />
        </mxCell>
        <mxCell id="9JZ9oiunxaafE0rHezBi-95" value="" style="triangle;whiteSpace=wrap;html=1;strokeColor=#99004D;fillColor=none;" vertex="1" parent="2a3bc250acf0617d-7">
          <mxGeometry x="77.5" y="125" width="30" height="35" as="geometry" />
        </mxCell>
        <mxCell id="9JZ9oiunxaafE0rHezBi-101" value="! (TmpScannerCounter &amp;gt;= 5)" style="text;html=1;strokeColor=none;fillColor=none;align=center;verticalAlign=middle;whiteSpace=wrap;rounded=0;" vertex="1" parent="2a3bc250acf0617d-7">
          <mxGeometry x="21" y="157" width="159" height="30" as="geometry" />
        </mxCell>
        <mxCell id="9JZ9oiunxaafE0rHezBi-122" value="" style="ellipse;html=1;shape=endState;fillColor=#000000;strokeColor=#999900;rounded=1;shadow=0;comic=0;labelBackgroundColor=none;fontFamily=Verdana;fontSize=12;fontColor=#000000;align=center;" vertex="1" parent="2a3bc250acf0617d-7">
          <mxGeometry x="787.5" y="140" width="30" height="30" as="geometry" />
        </mxCell>
        <mxCell id="9JZ9oiunxaafE0rHezBi-144" value="Console.WriteLine(Print)" style="text;html=1;strokeColor=none;fillColor=none;align=center;verticalAlign=middle;whiteSpace=wrap;rounded=0;" vertex="1" parent="2a3bc250acf0617d-7">
          <mxGeometry x="777.5" y="170" width="60" height="30" as="geometry" />
        </mxCell>
        <mxCell id="9JZ9oiunxaafE0rHezBi-1" value="Printer" style="swimlane;whiteSpace=wrap;html=1;rounded=1;shadow=0;comic=0;labelBackgroundColor=none;strokeWidth=1;fontFamily=Verdana;fontSize=12;align=center;" vertex="1" parent="9JZ9oiunxaafE0rHezBi-36">
          <mxGeometry x="150" y="178" width="940" height="300" as="geometry" />
        </mxCell>
        <mxCell id="9JZ9oiunxaafE0rHezBi-111" style="edgeStyle=orthogonalEdgeStyle;rounded=1;orthogonalLoop=1;jettySize=auto;html=1;exitX=0.25;exitY=1;exitDx=0;exitDy=0;entryX=0.5;entryY=0;entryDx=0;entryDy=0;strokeColor=#FF7B2E;" edge="1" parent="9JZ9oiunxaafE0rHezBi-1" source="9JZ9oiunxaafE0rHezBi-3" target="9JZ9oiunxaafE0rHezBi-85">
          <mxGeometry relative="1" as="geometry" />
        </mxCell>
        <mxCell id="9JZ9oiunxaafE0rHezBi-3" value="StandbyOff" style="rounded=1;whiteSpace=wrap;html=1;arcSize=24;shadow=0;comic=0;labelBackgroundColor=none;fontFamily=Verdana;fontSize=12;align=center;fillColor=#fff2cc;strokeColor=#d6b656;" vertex="1" parent="9JZ9oiunxaafE0rHezBi-1">
          <mxGeometry x="215" y="65" width="120" height="60" as="geometry" />
        </mxCell>
        <mxCell id="9JZ9oiunxaafE0rHezBi-5" style="edgeStyle=elbowEdgeStyle;html=1;labelBackgroundColor=none;endArrow=open;endSize=8;strokeColor=#FF7B2E;fontFamily=Verdana;fontSize=12;align=left;startArrow=none;" edge="1" parent="9JZ9oiunxaafE0rHezBi-1" source="9JZ9oiunxaafE0rHezBi-57" target="9JZ9oiunxaafE0rHezBi-3">
          <mxGeometry relative="1" as="geometry" />
        </mxCell>
        <mxCell id="9JZ9oiunxaafE0rHezBi-87" style="edgeStyle=orthogonalEdgeStyle;rounded=0;orthogonalLoop=1;jettySize=auto;html=1;exitX=0.25;exitY=1;exitDx=0;exitDy=0;entryX=1;entryY=0.5;entryDx=0;entryDy=0;strokeColor=#FF8000;" edge="1" parent="9JZ9oiunxaafE0rHezBi-1" source="9JZ9oiunxaafE0rHezBi-15" target="9JZ9oiunxaafE0rHezBi-84">
          <mxGeometry relative="1" as="geometry" />
        </mxCell>
        <mxCell id="9JZ9oiunxaafE0rHezBi-107" style="edgeStyle=orthogonalEdgeStyle;rounded=1;orthogonalLoop=1;jettySize=auto;html=1;exitX=0;exitY=1;exitDx=0;exitDy=0;entryX=1;entryY=0.5;entryDx=0;entryDy=0;strokeColor=#99004D;" edge="1" parent="9JZ9oiunxaafE0rHezBi-1" source="9JZ9oiunxaafE0rHezBi-15" target="9JZ9oiunxaafE0rHezBi-106">
          <mxGeometry relative="1" as="geometry">
            <Array as="points">
              <mxPoint x="420" y="140" />
              <mxPoint x="180" y="140" />
              <mxPoint x="180" y="200" />
            </Array>
          </mxGeometry>
        </mxCell>
        <mxCell id="9JZ9oiunxaafE0rHezBi-15" value="StandbyOn" style="rounded=1;whiteSpace=wrap;html=1;arcSize=24;shadow=0;comic=0;labelBackgroundColor=none;fontFamily=Verdana;fontSize=12;align=center;fillColor=#fff2cc;strokeColor=#d6b656;" vertex="1" parent="9JZ9oiunxaafE0rHezBi-1">
          <mxGeometry x="420" y="65" width="120" height="60" as="geometry" />
        </mxCell>
        <mxCell id="9JZ9oiunxaafE0rHezBi-57" value="" style="triangle;whiteSpace=wrap;html=1;strokeColor=#FF8000;fillColor=none;" vertex="1" parent="9JZ9oiunxaafE0rHezBi-1">
          <mxGeometry x="70" y="122.5" width="30" height="35" as="geometry" />
        </mxCell>
        <mxCell id="9JZ9oiunxaafE0rHezBi-60" value="TmpPrinterCounter &amp;gt;= 5" style="text;html=1;strokeColor=none;fillColor=none;align=center;verticalAlign=middle;whiteSpace=wrap;rounded=0;" vertex="1" parent="9JZ9oiunxaafE0rHezBi-1">
          <mxGeometry x="17.5" y="149" width="135" height="30" as="geometry" />
        </mxCell>
        <mxCell id="9JZ9oiunxaafE0rHezBi-112" style="edgeStyle=orthogonalEdgeStyle;rounded=1;orthogonalLoop=1;jettySize=auto;html=1;exitX=0.75;exitY=0;exitDx=0;exitDy=0;entryX=0.75;entryY=1;entryDx=0;entryDy=0;strokeColor=#FF7B2E;" edge="1" parent="9JZ9oiunxaafE0rHezBi-1" source="9JZ9oiunxaafE0rHezBi-83" target="9JZ9oiunxaafE0rHezBi-3">
          <mxGeometry relative="1" as="geometry" />
        </mxCell>
        <mxCell id="9JZ9oiunxaafE0rHezBi-83" value="Sleep" style="rounded=1;whiteSpace=wrap;html=1;arcSize=24;fillColor=#fff2cc;strokeColor=#d6b656;shadow=0;comic=0;labelBackgroundColor=none;fontFamily=Verdana;fontSize=12;fontColor=default;align=center;" vertex="1" parent="9JZ9oiunxaafE0rHezBi-1">
          <mxGeometry x="190" y="230" width="120" height="60" as="geometry" />
        </mxCell>
        <mxCell id="9JZ9oiunxaafE0rHezBi-88" style="edgeStyle=orthogonalEdgeStyle;rounded=0;orthogonalLoop=1;jettySize=auto;html=1;exitX=0;exitY=0.5;exitDx=0;exitDy=0;strokeColor=#FF8000;entryX=1;entryY=0.5;entryDx=0;entryDy=0;" edge="1" parent="9JZ9oiunxaafE0rHezBi-1" source="9JZ9oiunxaafE0rHezBi-84" target="9JZ9oiunxaafE0rHezBi-83">
          <mxGeometry relative="1" as="geometry">
            <mxPoint x="300" y="250" as="targetPoint" />
            <Array as="points">
              <mxPoint x="360" y="165" />
              <mxPoint x="360" y="260" />
            </Array>
          </mxGeometry>
        </mxCell>
        <mxCell id="9JZ9oiunxaafE0rHezBi-84" value="" style="ellipse;html=1;shape=endState;fillColor=#000000;strokeColor=#FF8000;rounded=1;shadow=0;comic=0;labelBackgroundColor=none;fontFamily=Verdana;fontSize=12;fontColor=#000000;align=center;" vertex="1" parent="9JZ9oiunxaafE0rHezBi-1">
          <mxGeometry x="390" y="150" width="30" height="30" as="geometry" />
        </mxCell>
        <mxCell id="9JZ9oiunxaafE0rHezBi-85" value="" style="ellipse;html=1;shape=endState;fillColor=#000000;strokeColor=#FF8000;rounded=1;shadow=0;comic=0;labelBackgroundColor=none;fontFamily=Verdana;fontSize=12;fontColor=#000000;align=center;" vertex="1" parent="9JZ9oiunxaafE0rHezBi-1">
          <mxGeometry x="240" y="150" width="30" height="30" as="geometry" />
        </mxCell>
        <mxCell id="9JZ9oiunxaafE0rHezBi-92" value="Console.WriteLine(Wait)" style="text;html=1;strokeColor=none;fillColor=none;align=center;verticalAlign=middle;whiteSpace=wrap;rounded=0;" vertex="1" parent="9JZ9oiunxaafE0rHezBi-1">
          <mxGeometry x="380" y="173" width="60" height="30" as="geometry" />
        </mxCell>
        <mxCell id="9JZ9oiunxaafE0rHezBi-93" value="Console.WriteLine(Print)" style="text;html=1;strokeColor=none;fillColor=none;align=center;verticalAlign=middle;whiteSpace=wrap;rounded=0;" vertex="1" parent="9JZ9oiunxaafE0rHezBi-1">
          <mxGeometry x="225" y="185" width="60" height="30" as="geometry" />
        </mxCell>
        <mxCell id="9JZ9oiunxaafE0rHezBi-106" value="" style="ellipse;html=1;shape=endState;fillColor=#000000;strokeColor=#99004D;rounded=1;shadow=0;comic=0;labelBackgroundColor=none;fontFamily=Verdana;fontSize=12;fontColor=#000000;align=center;" vertex="1" parent="9JZ9oiunxaafE0rHezBi-1">
          <mxGeometry x="110" y="185" width="30" height="30" as="geometry" />
        </mxCell>
        <mxCell id="9JZ9oiunxaafE0rHezBi-108" value="Console.WriteLine(Scan)" style="text;html=1;strokeColor=none;fillColor=none;align=center;verticalAlign=middle;whiteSpace=wrap;rounded=0;" vertex="1" parent="9JZ9oiunxaafE0rHezBi-1">
          <mxGeometry x="100" y="210" width="60" height="30" as="geometry" />
        </mxCell>
        <mxCell id="9JZ9oiunxaafE0rHezBi-119" value="! (TmpPrinterCounter &amp;gt;= 5)" style="text;html=1;strokeColor=none;fillColor=none;align=center;verticalAlign=middle;whiteSpace=wrap;rounded=0;" vertex="1" parent="9JZ9oiunxaafE0rHezBi-1">
          <mxGeometry x="7.5" y="60" width="155" height="30" as="geometry" />
        </mxCell>
        <mxCell id="9JZ9oiunxaafE0rHezBi-17" style="edgeStyle=orthogonalEdgeStyle;rounded=1;orthogonalLoop=1;jettySize=auto;html=1;strokeColor=#FF0080;labelBackgroundColor=none;endArrow=open;fontSize=12;fontFamily=Verdana;align=left;endSize=8;" edge="1" parent="9JZ9oiunxaafE0rHezBi-36" source="382b91b5511bd0f7-8" target="9JZ9oiunxaafE0rHezBi-15">
          <mxGeometry relative="1" as="geometry">
            <Array as="points">
              <mxPoint x="417" y="490" />
              <mxPoint x="630" y="490" />
            </Array>
          </mxGeometry>
        </mxCell>
        <mxCell id="9JZ9oiunxaafE0rHezBi-49" style="edgeStyle=orthogonalEdgeStyle;rounded=1;orthogonalLoop=1;jettySize=auto;html=1;exitX=1;exitY=0.5;exitDx=0;exitDy=0;strokeColor=#FF7B2E;" edge="1" parent="9JZ9oiunxaafE0rHezBi-36" source="9JZ9oiunxaafE0rHezBi-3" target="9JZ9oiunxaafE0rHezBi-16">
          <mxGeometry relative="1" as="geometry">
            <Array as="points">
              <mxPoint x="485" y="400" />
              <mxPoint x="550" y="400" />
              <mxPoint x="550" y="635" />
            </Array>
          </mxGeometry>
        </mxCell>
        <mxCell id="9JZ9oiunxaafE0rHezBi-50" style="edgeStyle=orthogonalEdgeStyle;rounded=1;orthogonalLoop=1;jettySize=auto;html=1;exitX=0.5;exitY=1;exitDx=0;exitDy=0;strokeColor=#006600;" edge="1" parent="9JZ9oiunxaafE0rHezBi-36" source="9JZ9oiunxaafE0rHezBi-20" target="9JZ9oiunxaafE0rHezBi-15">
          <mxGeometry relative="1" as="geometry">
            <Array as="points">
              <mxPoint x="630" y="95" />
              <mxPoint x="630" y="150" />
              <mxPoint x="530" y="150" />
              <mxPoint x="530" y="275" />
            </Array>
          </mxGeometry>
        </mxCell>
        <mxCell id="9JZ9oiunxaafE0rHezBi-51" style="edgeStyle=orthogonalEdgeStyle;orthogonalLoop=1;jettySize=auto;html=1;exitX=0.5;exitY=0;exitDx=0;exitDy=0;entryX=1;entryY=0.5;entryDx=0;entryDy=0;strokeColor=#006600;rounded=1;" edge="1" parent="9JZ9oiunxaafE0rHezBi-36" source="9JZ9oiunxaafE0rHezBi-20" target="9JZ9oiunxaafE0rHezBi-16">
          <mxGeometry relative="1" as="geometry">
            <Array as="points">
              <mxPoint x="702" y="95" />
              <mxPoint x="702" y="635" />
            </Array>
          </mxGeometry>
        </mxCell>
        <mxCell id="9JZ9oiunxaafE0rHezBi-20" value="" style="ellipse;html=1;shape=startState;fillColor=none;strokeColor=#000000;rounded=1;shadow=0;comic=0;labelBackgroundColor=none;fontFamily=Verdana;fontSize=12;fontColor=#000000;align=center;direction=south;" vertex="1" parent="9JZ9oiunxaafE0rHezBi-36">
          <mxGeometry x="670" y="80" width="30" height="30" as="geometry" />
        </mxCell>
        <mxCell id="9JZ9oiunxaafE0rHezBi-27" value="TurnStandbyOn()" style="text;html=1;strokeColor=none;fillColor=none;align=center;verticalAlign=middle;whiteSpace=wrap;rounded=0;" vertex="1" parent="9JZ9oiunxaafE0rHezBi-36">
          <mxGeometry x="655" y="50" width="60" height="30" as="geometry" />
        </mxCell>
        <mxCell id="9JZ9oiunxaafE0rHezBi-54" style="edgeStyle=orthogonalEdgeStyle;rounded=0;orthogonalLoop=1;jettySize=auto;html=1;exitX=1;exitY=0.5;exitDx=0;exitDy=0;entryX=0.25;entryY=0;entryDx=0;entryDy=0;strokeColor=#006600;" edge="1" parent="9JZ9oiunxaafE0rHezBi-36" source="9JZ9oiunxaafE0rHezBi-21" target="9JZ9oiunxaafE0rHezBi-3">
          <mxGeometry relative="1" as="geometry" />
        </mxCell>
        <mxCell id="9JZ9oiunxaafE0rHezBi-55" style="edgeStyle=orthogonalEdgeStyle;rounded=1;orthogonalLoop=1;jettySize=auto;html=1;exitX=0.5;exitY=1;exitDx=0;exitDy=0;entryX=0.25;entryY=0;entryDx=0;entryDy=0;strokeColor=#006600;" edge="1" parent="9JZ9oiunxaafE0rHezBi-36" source="9JZ9oiunxaafE0rHezBi-21" target="382b91b5511bd0f7-8">
          <mxGeometry relative="1" as="geometry">
            <Array as="points">
              <mxPoint x="50" y="95" />
              <mxPoint x="50" y="490" />
              <mxPoint x="387" y="490" />
            </Array>
          </mxGeometry>
        </mxCell>
        <mxCell id="9JZ9oiunxaafE0rHezBi-21" value="" style="ellipse;html=1;shape=startState;fillColor=none;strokeColor=#000000;rounded=1;shadow=0;comic=0;labelBackgroundColor=none;fontFamily=Verdana;fontSize=12;fontColor=#000000;align=center;direction=south;" vertex="1" parent="9JZ9oiunxaafE0rHezBi-36">
          <mxGeometry x="380" y="80" width="30" height="30" as="geometry" />
        </mxCell>
        <mxCell id="9JZ9oiunxaafE0rHezBi-26" value="TurnStandbyOff()" style="text;html=1;strokeColor=none;fillColor=none;align=center;verticalAlign=middle;whiteSpace=wrap;rounded=0;" vertex="1" parent="9JZ9oiunxaafE0rHezBi-36">
          <mxGeometry x="365" y="50" width="60" height="30" as="geometry" />
        </mxCell>
        <mxCell id="9JZ9oiunxaafE0rHezBi-117" style="edgeStyle=orthogonalEdgeStyle;rounded=1;orthogonalLoop=1;jettySize=auto;html=1;exitX=0;exitY=0.5;exitDx=0;exitDy=0;entryX=0;entryY=0.5;entryDx=0;entryDy=0;strokeColor=#CCCC00;" edge="1" parent="9JZ9oiunxaafE0rHezBi-36" source="9JZ9oiunxaafE0rHezBi-6" target="9JZ9oiunxaafE0rHezBi-114">
          <mxGeometry relative="1" as="geometry" />
        </mxCell>
        <mxCell id="9JZ9oiunxaafE0rHezBi-6" value="" style="ellipse;html=1;shape=startState;fillColor=none;strokeColor=#000000;rounded=1;shadow=0;comic=0;labelBackgroundColor=none;fontFamily=Verdana;fontSize=12;fontColor=#000000;align=center;direction=south;" vertex="1" parent="9JZ9oiunxaafE0rHezBi-36">
          <mxGeometry x="100" y="305" width="30" height="30" as="geometry" />
        </mxCell>
        <mxCell id="9JZ9oiunxaafE0rHezBi-58" value="" style="edgeStyle=elbowEdgeStyle;html=1;labelBackgroundColor=none;endArrow=none;endSize=8;strokeColor=#FF7B2E;fontFamily=Verdana;fontSize=12;align=left;" edge="1" parent="9JZ9oiunxaafE0rHezBi-36" source="9JZ9oiunxaafE0rHezBi-6" target="9JZ9oiunxaafE0rHezBi-57">
          <mxGeometry relative="1" as="geometry">
            <mxPoint x="444.9999999999998" y="485" as="sourcePoint" />
            <mxPoint x="554.9999999999998" y="485" as="targetPoint" />
          </mxGeometry>
        </mxCell>
        <mxCell id="9JZ9oiunxaafE0rHezBi-11" value="Print()" style="text;html=1;strokeColor=none;fillColor=none;align=center;verticalAlign=middle;whiteSpace=wrap;rounded=0;" vertex="1" parent="9JZ9oiunxaafE0rHezBi-36">
          <mxGeometry x="90" y="275" width="60" height="30" as="geometry" />
        </mxCell>
        <mxCell id="9JZ9oiunxaafE0rHezBi-65" style="edgeStyle=orthogonalEdgeStyle;rounded=0;orthogonalLoop=1;jettySize=auto;html=1;exitX=0.5;exitY=1;exitDx=0;exitDy=0;entryX=1;entryY=0.5;entryDx=0;entryDy=0;strokeColor=#006600;" edge="1" parent="9JZ9oiunxaafE0rHezBi-36" source="9JZ9oiunxaafE0rHezBi-63" target="9JZ9oiunxaafE0rHezBi-15">
          <mxGeometry relative="1" as="geometry" />
        </mxCell>
        <mxCell id="9JZ9oiunxaafE0rHezBi-66" style="edgeStyle=orthogonalEdgeStyle;rounded=1;orthogonalLoop=1;jettySize=auto;html=1;exitX=1;exitY=0.5;exitDx=0;exitDy=0;entryX=0.75;entryY=1;entryDx=0;entryDy=0;strokeColor=#006600;" edge="1" parent="9JZ9oiunxaafE0rHezBi-36" source="9JZ9oiunxaafE0rHezBi-63" target="9JZ9oiunxaafE0rHezBi-16">
          <mxGeometry relative="1" as="geometry">
            <Array as="points">
              <mxPoint x="835" y="690" />
              <mxPoint x="652" y="690" />
            </Array>
          </mxGeometry>
        </mxCell>
        <mxCell id="9JZ9oiunxaafE0rHezBi-63" value="" style="ellipse;html=1;shape=startState;fillColor=none;strokeColor=#000000;rounded=1;shadow=0;comic=0;labelBackgroundColor=none;fontFamily=Verdana;fontSize=12;fontColor=#000000;align=center;direction=south;" vertex="1" parent="9JZ9oiunxaafE0rHezBi-36">
          <mxGeometry x="820" y="80" width="30" height="30" as="geometry" />
        </mxCell>
        <mxCell id="9JZ9oiunxaafE0rHezBi-64" value="TurnOn()" style="text;html=1;strokeColor=none;fillColor=none;align=center;verticalAlign=middle;whiteSpace=wrap;rounded=0;" vertex="1" parent="9JZ9oiunxaafE0rHezBi-36">
          <mxGeometry x="805" y="50" width="60" height="30" as="geometry" />
        </mxCell>
        <mxCell id="9JZ9oiunxaafE0rHezBi-67" style="edgeStyle=orthogonalEdgeStyle;rounded=1;orthogonalLoop=1;jettySize=auto;html=1;exitX=1;exitY=1;exitDx=0;exitDy=0;entryX=1;entryY=1;entryDx=0;entryDy=0;strokeColor=#FF0080;" edge="1" parent="9JZ9oiunxaafE0rHezBi-36" source="9JZ9oiunxaafE0rHezBi-15" target="9JZ9oiunxaafE0rHezBi-16">
          <mxGeometry relative="1" as="geometry">
            <Array as="points">
              <mxPoint x="690" y="410" />
              <mxPoint x="790" y="410" />
              <mxPoint x="790" y="665" />
            </Array>
          </mxGeometry>
        </mxCell>
        <mxCell id="2a3bc250acf0617d-3" value="" style="ellipse;html=1;shape=startState;fillColor=none;strokeColor=#000000;rounded=1;shadow=0;comic=0;labelBackgroundColor=none;fontFamily=Verdana;fontSize=12;fontColor=#000000;align=center;direction=south;" parent="9JZ9oiunxaafE0rHezBi-36" vertex="1">
          <mxGeometry x="100" y="617.5" width="30" height="30" as="geometry" />
        </mxCell>
        <mxCell id="9JZ9oiunxaafE0rHezBi-80" value="" style="edgeStyle=elbowEdgeStyle;html=1;labelBackgroundColor=none;endArrow=none;endSize=8;strokeColor=#FF0080;fontFamily=Verdana;fontSize=12;align=left;elbow=vertical;" edge="1" parent="9JZ9oiunxaafE0rHezBi-36" source="2a3bc250acf0617d-3" target="9JZ9oiunxaafE0rHezBi-79">
          <mxGeometry relative="1" as="geometry">
            <mxPoint x="429.9891116944184" y="1205.5714285714287" as="sourcePoint" />
            <mxPoint x="539.9999999999998" y="1205.5714285714287" as="targetPoint" />
          </mxGeometry>
        </mxCell>
        <mxCell id="9JZ9oiunxaafE0rHezBi-14" value="Scan()" style="text;html=1;strokeColor=none;fillColor=none;align=center;verticalAlign=middle;whiteSpace=wrap;rounded=0;" vertex="1" parent="9JZ9oiunxaafE0rHezBi-36">
          <mxGeometry x="85" y="590" width="60" height="30" as="geometry" />
        </mxCell>
        <mxCell id="9JZ9oiunxaafE0rHezBi-82" style="edgeStyle=orthogonalEdgeStyle;rounded=1;orthogonalLoop=1;jettySize=auto;html=1;exitX=1;exitY=0;exitDx=0;exitDy=0;entryX=0.75;entryY=1;entryDx=0;entryDy=0;strokeColor=#FF7B2E;" edge="1" parent="9JZ9oiunxaafE0rHezBi-36" source="9JZ9oiunxaafE0rHezBi-16" target="9JZ9oiunxaafE0rHezBi-15">
          <mxGeometry relative="1" as="geometry" />
        </mxCell>
        <mxCell id="9JZ9oiunxaafE0rHezBi-98" value="" style="edgeStyle=orthogonalEdgeStyle;rounded=1;orthogonalLoop=1;jettySize=auto;html=1;exitX=1;exitY=0.5;exitDx=0;exitDy=0;entryX=0;entryY=0.5;entryDx=0;entryDy=0;strokeColor=#99004D;labelBackgroundColor=none;endArrow=none;fontSize=12;fontFamily=Verdana;align=left;endSize=8;startArrow=none;" edge="1" parent="9JZ9oiunxaafE0rHezBi-36" source="2a3bc250acf0617d-3" target="9JZ9oiunxaafE0rHezBi-95">
          <mxGeometry relative="1" as="geometry">
            <mxPoint x="155.00000000000023" y="677.5" as="sourcePoint" />
            <mxPoint x="457.4999999999998" y="695" as="targetPoint" />
            <Array as="points">
              <mxPoint x="115" y="683" />
            </Array>
          </mxGeometry>
        </mxCell>
        <mxCell id="9JZ9oiunxaafE0rHezBi-103" style="edgeStyle=orthogonalEdgeStyle;rounded=1;orthogonalLoop=1;jettySize=auto;html=1;exitX=1;exitY=0.5;exitDx=0;exitDy=0;entryX=0.373;entryY=1.033;entryDx=0;entryDy=0;entryPerimeter=0;strokeColor=#99004D;" edge="1" parent="9JZ9oiunxaafE0rHezBi-36" source="382b91b5511bd0f7-8" target="9JZ9oiunxaafE0rHezBi-15">
          <mxGeometry relative="1" as="geometry">
            <Array as="points">
              <mxPoint x="477" y="510" />
              <mxPoint x="615" y="510" />
            </Array>
          </mxGeometry>
        </mxCell>
        <mxCell id="9JZ9oiunxaafE0rHezBi-118" style="edgeStyle=orthogonalEdgeStyle;rounded=1;orthogonalLoop=1;jettySize=auto;html=1;exitX=1;exitY=0.5;exitDx=0;exitDy=0;entryX=0;entryY=0.25;entryDx=0;entryDy=0;strokeColor=#CCCC00;" edge="1" parent="9JZ9oiunxaafE0rHezBi-36" source="9JZ9oiunxaafE0rHezBi-114" target="9JZ9oiunxaafE0rHezBi-3">
          <mxGeometry relative="1" as="geometry" />
        </mxCell>
        <mxCell id="9JZ9oiunxaafE0rHezBi-114" value="" style="triangle;whiteSpace=wrap;html=1;strokeColor=#999900;fillColor=none;" vertex="1" parent="9JZ9oiunxaafE0rHezBi-36">
          <mxGeometry x="220" y="210" width="30" height="35" as="geometry" />
        </mxCell>
        <mxCell id="9JZ9oiunxaafE0rHezBi-120" style="edgeStyle=orthogonalEdgeStyle;rounded=1;orthogonalLoop=1;jettySize=auto;html=1;exitX=1;exitY=0;exitDx=0;exitDy=0;entryX=1;entryY=0.75;entryDx=0;entryDy=0;strokeColor=#CCCC00;" edge="1" parent="9JZ9oiunxaafE0rHezBi-36" source="9JZ9oiunxaafE0rHezBi-3" target="9JZ9oiunxaafE0rHezBi-16">
          <mxGeometry relative="1" as="geometry">
            <Array as="points">
              <mxPoint x="485" y="225" />
              <mxPoint x="880" y="225" />
              <mxPoint x="880" y="650" />
            </Array>
          </mxGeometry>
        </mxCell>
      </root>
    </mxGraphModel>
  </diagram>
</mxfile>
